# xmcd CD database file
# Copyright (C) 1993-1998 Ti Kan
#
# Track frame offsets:
#  150
#  18775
#  29255
#  47025
#  63635
#  77438
#  94780
#  117735
#  131160
#  145270
#  166375
#  179323
#  204215
#  221308
#  236710
#  254040
#  291088
#  307298
#
# Disc length: 4305 seconds
#
# Revision: 2
# Processed by: cddbd v1.4PL0 Copyright (c) Steve Scherf et al.
# Submitted via: Gronk 1.4
#
DISCID=0b10cf12
DTITLE=Chinga Chavin - Live and Politically Correct Country Porn
DYEAR=1900
DGENRE=country
TTITLE0=Country Porn Theme
TTITLE1=Sex Partners
TTITLE2=Love that Burns
TTITLE3=Muff Diving Man
TTITLE4=Get It On The Run
TTITLE5=Mama's Turning Tricks To Throw My Bail
TTITLE6=Sadomasochistic Transvestite Queen
TTITLE7=Dry Humpin' In The Back Of A "55 Ford
TTITLE8=Runnin Bear
TTITLE9=Johnny B. Goode
TTITLE10=Everybody Calls Her A Slut (But I Love Her)
TTITLE11=Asshole From El Paso
TTITLE12=Feelin' You Feelin' Me
TTITLE13=$49 Divorice
TTITLE14=Beenies 'N' Beer
TTITLE15=Edna's Of La Grange
TTITLE16=4:00 AM Jump
TTITLE17=City Lights Are Shinning
EXTD=
EXTT0=
EXTT1=
EXTT2=
EXTT3=
EXTT4=
EXTT5=
EXTT6=
EXTT7=
EXTT8=
EXTT9=
EXTT10=
EXTT11=
EXTT12=
EXTT13=
EXTT14=
EXTT15=
EXTT16=
EXTT17=
PLAYORDER=
